<?xml version="1.0" encoding="utf-8"?>
<!-- Generator: Adobe Illustrator 22.1.0, SVG Export Plug-In . SVG Version: 6.00 Build 0)  -->
<svg version="1.1"
	 id="Layer_1" xmlns:cc="http://creativecommons.org/ns#" xmlns:dc="http://purl.org/dc/elements/1.1/" xmlns:inkscape="http://www.inkscape.org/namespaces/inkscape" xmlns:rdf="http://www.w3.org/1999/02/22-rdf-syntax-ns#" xmlns:sodipodi="http://sodipodi.sourceforge.net/DTD/sodipodi-0.dtd" xmlns:svg="http://www.w3.org/2000/svg"
	 xmlns="http://www.w3.org/2000/svg" xmlns:xlink="http://www.w3.org/1999/xlink" x="0px" y="0px" viewBox="0 0 10 10"
	 style="enable-background:new 0 0 10 10;" xml:space="preserve">
<style type="text/css">
	.st0{fill:#005086;}
</style>
<g transform="translate(0,-280.06665)">
	<path class="st0" d="M7.3,281.1l-0.4,0.4c-0.1,0.1-0.1,0.1,0,0.2l0.2,0.2l-0.7,0.7l0.2,0.2l0.7-0.7l0.7,0.7l-0.7,0.7l0.2,0.2
		l0.7-0.7l0.2,0.2c0.1,0.1,0.1,0.1,0.2,0l0.4-0.4c0.1-0.1,0.1-0.1,0-0.2l-1.5-1.5C7.4,281,7.4,281.1,7.3,281.1L7.3,281.1z
		 M5.6,282.3l-0.4,0.4c-0.1,0.1-0.1,0.1,0,0.2l0.2,0.2L2.4,286c-0.1,0.1-0.2,0.4,0,0.5l-0.3,0.3c-0.1,0.1-0.1,0.1,0,0.2l0.2,0.2
		l-0.4,0.4c-0.1,0.1-0.1,0.1,0,0.2l0.1,0.1L1,288.8c-0.1,0.1,0.1,0.3,0.2,0.2l0.9-0.9l0.1,0.1c0.1,0.1,0.1,0.1,0.2,0l0.4-0.4L3,288
		c0.1,0.1,0.1,0.1,0.2,0l0.3-0.3c0.2,0.1,0.4,0.1,0.5,0l2.9-2.9l0.2,0.2c0.1,0.1,0.1,0.1,0.2,0l0.4-0.4c0.1-0.1,0.1-0.1,0-0.2l-2-2
		C5.7,282.3,5.6,282.2,5.6,282.3L5.6,282.3z M5.5,283.3l1.3,1.3l-2.9,2.9c-0.1,0.1-0.1,0.1-0.2,0l-1.1-1.1c-0.1-0.1-0.1-0.1,0-0.2
		L5.5,283.3z M4.6,284.7C4.5,284.7,4.5,284.7,4.6,284.7L3,286.2c-0.1,0.1-0.1,0.1,0,0.2l0.7,0.7c0.1,0.1,0.1,0.1,0.2,0l2.2-2.2
		c0.1-0.1,0-0.2-0.1-0.2H4.6z M2.6,286.7l0.7,0.7l-0.2,0.2l-0.7-0.7L2.6,286.7z M2.5,287.4l0.2,0.2l-0.3,0.3
		c-0.1-0.1-0.1-0.1-0.2-0.2L2.5,287.4z"/>
</g>
</svg>
