<?xml version="1.0" encoding="utf-8"?>
<!-- Generator: Adobe Illustrator 22.1.0, SVG Export Plug-In . SVG Version: 6.00 Build 0)  -->
<svg version="1.1"
	 id="Layer_1" xmlns:cc="http://creativecommons.org/ns#" xmlns:dc="http://purl.org/dc/elements/1.1/" xmlns:inkscape="http://www.inkscape.org/namespaces/inkscape" xmlns:rdf="http://www.w3.org/1999/02/22-rdf-syntax-ns#" xmlns:sodipodi="http://sodipodi.sourceforge.net/DTD/sodipodi-0.dtd" xmlns:svg="http://www.w3.org/2000/svg"
	 xmlns="http://www.w3.org/2000/svg" xmlns:xlink="http://www.w3.org/1999/xlink" x="0px" y="0px" viewBox="0 0 14 14"
	 style="enable-background:new 0 0 14 14;" xml:space="preserve">
<style type="text/css">
	.st0{fill:#EFB747;}
</style>
<g transform="translate(0,-280.06665)">
	<path class="st0" d="M9.3,283.1l-0.4,0.4c-0.1,0.1-0.1,0.1,0,0.2l0.2,0.2l-0.7,0.7l0.2,0.2l0.7-0.7l0.7,0.7l-0.7,0.7l0.2,0.2
		l0.7-0.7l0.2,0.2c0.1,0.1,0.1,0.1,0.2,0l0.4-0.4c0.1-0.1,0.1-0.1,0-0.2l-1.5-1.5C9.4,283,9.4,283.1,9.3,283.1L9.3,283.1z
		 M7.6,284.3l-0.4,0.4c-0.1,0.1-0.1,0.1,0,0.2l0.2,0.2L4.4,288c-0.1,0.1-0.2,0.4,0,0.5l-0.3,0.3c-0.1,0.1-0.1,0.1,0,0.2l0.2,0.2
		l-0.4,0.4c-0.1,0.1-0.1,0.1,0,0.2l0.1,0.1L3,290.8c-0.1,0.1,0.1,0.3,0.2,0.2l0.9-0.9l0.1,0.1c0.1,0.1,0.1,0.1,0.2,0l0.4-0.4L5,290
		c0.1,0.1,0.1,0.1,0.2,0l0.3-0.3c0.2,0.1,0.4,0.1,0.5,0l2.9-2.9l0.2,0.2c0.1,0.1,0.1,0.1,0.2,0l0.4-0.4c0.1-0.1,0.1-0.1,0-0.2l-2-2
		C7.7,284.3,7.6,284.2,7.6,284.3L7.6,284.3z M7.5,285.3l1.3,1.3l-2.9,2.9c-0.1,0.1-0.1,0.1-0.2,0l-1.1-1.1c-0.1-0.1-0.1-0.1,0-0.2
		L7.5,285.3z M6.6,286.7C6.5,286.7,6.5,286.7,6.6,286.7L5,288.2c-0.1,0.1-0.1,0.1,0,0.2l0.7,0.7c0.1,0.1,0.1,0.1,0.2,0l2.2-2.2
		c0.1-0.1,0-0.2-0.1-0.2H6.6z M4.6,288.7l0.7,0.7l-0.2,0.2l-0.7-0.7L4.6,288.7z M4.5,289.4l0.2,0.2l-0.3,0.3
		c-0.1-0.1-0.1-0.1-0.2-0.2L4.5,289.4z"/>
</g>
</svg>
