<svg xmlns:dc="http://purl.org/dc/elements/1.1/" xmlns:cc="http://creativecommons.org/ns#" xmlns:rdf="http://www.w3.org/1999/02/22-rdf-syntax-ns#" xmlns:svg="http://www.w3.org/2000/svg" xmlns="http://www.w3.org/2000/svg" xmlns:sodipodi="http://sodipodi.sourceforge.net/DTD/sodipodi-0.dtd" xmlns:inkscape="http://www.inkscape.org/namespaces/inkscape" viewBox="0 0 16.933333 21.1666675" version="1.1" x="0px" y="0px"><g transform="translate(0,-280.06665)"><path d="m 13.042092,280.6723 -0.79324,0.79479 c -0.1026,0.1032 -0.1026,0.26989 0,0.3731 l 0.34313,0.34313 -1.3689,1.36891 0.37362,0.37259 1.36736,-1.36788 1.47846,1.47898 -1.36736,1.36736 0.37414,0.37362 1.36735,-1.36736 0.34262,0.34313 c 0.10321,0.1026 0.2699,0.1026 0.3731,0 l 0.79479,-0.7953 c 0.10259,-0.1032 0.10259,-0.26989 0,-0.3731 l -2.9099,-2.91197 c -0.111834,-0.11191 -0.270585,-0.10479 -0.37517,0 z m -3.4395904,2.3828 -0.79271,0.79323 c -0.10363,0.10339 -0.10363,0.27127 0,0.37466 l 0.34106,0.34106 -5.7882802,5.78983 c -0.29664,0.29665 -0.30427,0.77583 -0.0289,1.08572 l -0.6097802,0.61185 c -0.1025968,0.10321 -0.1025968,0.26989 0,0.3731 l 0.34158,0.34159 -0.8712599,0.87126 c -0.10363,0.10339 -0.10363,0.27127 0,0.37465 l 0.21032,0.21033 -1.79781995,1.79782 c -0.27058,0.24958 0.1262,0.64471 0.37465,0.3731 l 1.79679005,-1.7973 0.2092899,0.20929 c 0.10345,0.10397 0.27173,0.10397 0.37517,0 l 0.8707501,-0.87127 0.3420999,0.3421 c 0.1033862,0.10363 0.271264,0.10363 0.37465,0 l 0.6097799,-0.60978 c 0.30998,0.27562 0.7910401,0.2678 1.0877902,-0.0289 l 5.7882806,-5.78828 0.34262,0.34261 c 0.10321,0.1026 0.26989,0.1026 0.3731,0 l 0.79478,-0.79478 c 0.1026,-0.10321 0.1026,-0.26989 0,-0.3731 l -3.9687504,-3.96875 c -0.08567,-0.0857 -0.249339,-0.12596 -0.37521,0 z m -0.077,1.88361 2.5362804,2.53628 -5.7893105,5.78931 c -0.1068901,0.10689 -0.26777,0.10688 -0.37465,0 l -2.1621399,-2.16214 c -0.10688,-0.10688 -0.10688,-0.26829 0,-0.37517 z m -1.94251,2.79983 c -0.0704,6e-5 -0.1374502,0.0281 -0.1870702,0.078 l -2.9104199,2.91041 c -0.10386,0.10343 -0.10386,0.27175 0,0.37517 l 1.4118001,1.4118 c 0.1034298,0.10387 0.27174,0.10387 0.3751699,0 l 4.3222205,-4.32221 c 0.16928,-0.16672 0.0505,-0.45483 -0.18707,-0.45321 z m -3.8783202,4.07882 1.4774302,1.47743 -0.4196101,0.42065 -1.47846,-1.47847 z m -0.26406,1.32395 0.4180602,0.41961 -0.6836802,0.68368 c -0.1417399,-0.14464 -0.2780098,-0.278 -0.42013,-0.42013 z" style="color:#000000;font-style:normal;font-variant:normal;font-weight:normal;font-stretch:normal;font-size:medium;line-height:normal;font-family:sans-serif;font-variant-ligatures:normal;font-variant-position:normal;font-variant-caps:normal;font-variant-numeric:normal;font-variant-alternates:normal;font-feature-settings:normal;text-indent:0;text-align:start;text-decoration:none;text-decoration-line:none;text-decoration-style:solid;text-decoration-color:#000000;letter-spacing:normal;word-spacing:normal;text-transform:none;writing-mode:lr-tb;direction:ltr;text-orientation:mixed;dominant-baseline:auto;baseline-shift:baseline;text-anchor:start;white-space:normal;shape-padding:0;clip-rule:nonzero;display:inline;overflow:visible;visibility:visible;opacity:1;isolation:auto;mix-blend-mode:normal;color-interpolation:sRGB;color-interpolation-filters:linearRGB;solid-color:#000000;solid-opacity:1;vector-effect:none;fill:#efb747  ;fill-opacity:1;fill-rule:nonzero;stroke:none;stroke-width:0.5291667;stroke-linecap:round;stroke-linejoin:round;stroke-miterlimit:4;stroke-dasharray:none;stroke-dashoffset:0;stroke-opacity:1;color-rendering:auto;image-rendering:auto;shape-rendering:auto;text-rendering:auto;enable-background:accumulate"/></g><text x="0" y="31.933334" fill="#000000" font-size="5px" font-weight="bold" font-family="'Helvetica Neue', Helvetica, Arial-Unicode, Arial, Sans-serif">Created by Nawicon</text><text x="0" y="36.933334" fill="#000000" font-size="5px" font-weight="bold" font-family="'Helvetica Neue', Helvetica, Arial-Unicode, Arial, Sans-serif">from the Noun Project</text></svg>