<?xml version="1.0" encoding="utf-8"?>
<!-- Generator: Adobe Illustrator 22.1.0, SVG Export Plug-In . SVG Version: 6.00 Build 0)  -->
<svg version="1.1"
	 id="Layer_1" xmlns:cc="http://creativecommons.org/ns#" xmlns:dc="http://purl.org/dc/elements/1.1/" xmlns:inkscape="http://www.inkscape.org/namespaces/inkscape" xmlns:rdf="http://www.w3.org/1999/02/22-rdf-syntax-ns#" xmlns:sodipodi="http://sodipodi.sourceforge.net/DTD/sodipodi-0.dtd" xmlns:svg="http://www.w3.org/2000/svg"
	 xmlns="http://www.w3.org/2000/svg" xmlns:xlink="http://www.w3.org/1999/xlink" x="0px" y="0px" viewBox="0 0 12 9"
	 style="enable-background:new 0 0 12 9;" xml:space="preserve">
<style type="text/css">
	.st0{fill:#EFB747;}
</style>
<g transform="translate(0,-280.06665)">
	<path class="st0" d="M8.1,281l-0.4,0.4c-0.1,0.1-0.1,0.1,0,0.2l0.2,0.2l-0.6,0.6l0.2,0.2l0.6-0.6l0.6,0.6l-0.6,0.6l0.2,0.2l0.6-0.6
		l0.2,0.2c0.1,0.1,0.1,0.1,0.2,0l0.4-0.4c0.1-0.1,0.1-0.1,0-0.2L8.2,281C8.1,280.9,8.1,281,8.1,281L8.1,281z M6.5,282.1l-0.4,0.4
		c-0.1,0.1-0.1,0.1,0,0.2l0.2,0.2l-2.7,2.6c-0.1,0.1-0.2,0.4,0,0.5l-0.3,0.3c-0.1,0.1-0.1,0.1,0,0.2l0.2,0.2l-0.4,0.4
		c-0.1,0.1-0.1,0.1,0,0.2l0.1,0.1L2.4,288c-0.1,0.1,0.1,0.3,0.2,0.2l0.8-0.8l0.1,0.1c0.1,0.1,0.1,0.1,0.2,0l0.4-0.4l0.2,0.2
		c0.1,0.1,0.1,0.1,0.2,0l0.3-0.3c0.2,0.1,0.4,0.1,0.5,0l2.6-2.6l0.2,0.2c0.1,0.1,0.1,0.1,0.2,0l0.4-0.4c0.1-0.1,0.1-0.1,0-0.2
		L6.5,282.1C6.6,282.1,6.5,282,6.5,282.1L6.5,282.1z M6.4,283l1.2,1.2L5,286.8c-0.1,0.1-0.1,0.1-0.2,0l-1-1c-0.1-0.1-0.1-0.1,0-0.2
		L6.4,283z M5.6,284.3C5.5,284.3,5.5,284.3,5.6,284.3l-1.4,1.4c-0.1,0.1-0.1,0.1,0,0.2l0.6,0.6c0.1,0.1,0.1,0.1,0.2,0l2-2
		c0.1-0.1,0-0.2-0.1-0.2H5.6z M3.8,286.1l0.6,0.6l-0.2,0.2l-0.6-0.6L3.8,286.1z M3.7,286.7l0.2,0.2l-0.3,0.3
		c-0.1-0.1-0.1-0.1-0.2-0.2L3.7,286.7z"/>
</g>
</svg>
